<svg width="20" height="19" viewBox="0 0 20 19" fill="none" xmlns="http://www.w3.org/2000/svg">
<path d="M0.600082 9.91656L4.05208 11.4276L14.0001 6.00056L8.00008 13.0006L16.6001 16.9166C16.7281 16.9736 16.8651 17.0006 17.0001 17.0006C17.1811 17.0006 17.3601 16.9516 17.5201 16.8546C17.7981 16.6856 17.9771 16.3916 17.9991 16.0666L18.9991 1.06656C19.0221 0.712561 18.8571 0.373561 18.5641 0.173561C18.2721 -0.0254387 17.8971 -0.0554387 17.5751 0.0945613L0.575082 8.09456C0.219082 8.26256 -0.004918 8.62156 8.20044e-05 9.01356C0.006082 9.40556 0.240082 9.75856 0.600082 9.91656ZM6.00008 19.0006L10.7761 16.6846L6.00008 14.4566V19.0006Z" fill="white"/>
</svg>
