<svg width="19" height="19" viewBox="0 0 19 19" fill="none" xmlns="http://www.w3.org/2000/svg">
<path d="M1 8.58625H7C7.553 8.58625 8 8.13925 8 7.58625V1.58625C8 1.03325 7.553 0.58625 7 0.58625H1C0.447 0.58625 0 1.03325 0 1.58625V7.58625C0 8.13925 0.447 8.58625 1 8.58625ZM1 18.5863H7C7.553 18.5863 8 18.1392 8 17.5863V11.5863C8 11.0333 7.553 10.5863 7 10.5863H1C0.447 10.5863 0 11.0333 0 11.5863V17.5863C0 18.1392 0.447 18.5863 1 18.5863ZM11 18.5863H17C17.553 18.5863 18 18.1392 18 17.5863V11.5863C18 11.0333 17.553 10.5863 17 10.5863H11C10.447 10.5863 10 11.0333 10 11.5863V17.5863C10 18.1392 10.447 18.5863 11 18.5863ZM18.293 3.87925L14.707 0.29325C14.316 -0.09775 13.684 -0.09775 13.293 0.29325L9.707 3.87925C9.316 4.27025 9.316 4.90225 9.707 5.29325L13.293 8.87925C13.684 9.27025 14.316 9.27025 14.707 8.87925L18.293 5.29325C18.684 4.90225 18.684 4.27025 18.293 3.87925Z" fill="white"/>
</svg>
