<svg width="14" height="22" viewBox="0 0 14 22" fill="none" xmlns="http://www.w3.org/2000/svg">
<path d="M13.0607 3.06066C13.6464 2.47487 13.6464 1.52513 13.0607 0.93934C12.4749 0.353553 11.5251 0.353553 10.9393 0.93934L13.0607 3.06066ZM3 11L1.93934 9.93934L0.87868 11L1.93934 12.0607L3 11ZM10.9393 21.0607C11.5251 21.6464 12.4749 21.6464 13.0607 21.0607C13.6464 20.4749 13.6464 19.5251 13.0607 18.9393L10.9393 21.0607ZM10.9393 0.93934L1.93934 9.93934L4.06066 12.0607L13.0607 3.06066L10.9393 0.93934ZM1.93934 12.0607L10.9393 21.0607L13.0607 18.9393L4.06066 9.93934L1.93934 12.0607Z" fill="#393E42"/>
</svg>
