<svg width="120" height="72" viewBox="0 0 120 72" fill="none" xmlns="http://www.w3.org/2000/svg">
<path fill-rule="evenodd" clip-rule="evenodd" d="M43.1459 32.8206C43.5553 32.4498 43.7401 31.8096 45.0508 31.2239C45.9418 30.8259 47.096 30.7577 48.1445 30.9476C50.0852 31.2984 51.4044 32.2088 52.8174 33.3573C53.9546 34.2808 55.2248 35.9184 55.9612 37.246C57.9598 40.8504 58.5586 44.6789 58.2242 48.8843C58.1196 50.1978 57.5305 53.8687 56.9864 54.7341C56.3888 55.6843 54.9195 55.0554 53.3518 55.0543C53.0567 55.0543 52.8475 54.9536 52.591 54.8945C51.994 54.7563 51.5289 54.82 50.9586 54.7347C49.8816 54.5732 48.832 54.5465 47.8238 54.8752C47.0187 55.1367 46.039 55.9094 46.8106 56.8687C47.0767 56.6799 47.0261 56.5406 47.6146 56.341C48.0064 56.2091 48.3856 56.1613 48.8229 56.1676C48.6938 56.4326 48.5221 56.507 48.4152 56.9255C48.3128 57.3304 48.4095 57.6312 48.5744 57.8746C48.7575 57.7881 49.5319 56.6822 50.5776 56.6816C50.3701 56.9568 50.1665 57.0478 50.1711 57.534C50.175 57.9519 50.3786 58.2106 50.5958 58.3874L51.1638 57.783C51.3202 57.6431 51.6449 57.4384 51.8837 57.3116C52.5893 56.9369 53.614 56.6157 54.4169 56.2705C54.7859 56.1119 54.9252 56.3524 55.1759 56.527C56.1028 57.174 55.9379 57.2673 56.2745 57.8069C56.7476 57.5698 57.3827 57.0211 57.1399 56.2432C57.9104 56.3592 58.7172 56.6242 59.9488 56.7919C61.9753 57.0666 64.2208 57.0757 66.2518 56.8101C67.3055 56.6714 68.1783 56.4144 69.1557 56.2552C68.9965 57.0774 69.5441 57.5829 70.0803 57.8166C70.198 57.1689 70.7103 56.8459 71.1555 56.5179C71.7707 56.0652 71.466 56.1295 72.7715 56.6179C73.6039 56.929 74.4921 57.2406 75.1659 57.7915C75.3723 57.9604 75.5622 58.2862 75.7561 58.3988C76.3514 57.7017 76.2428 57.3162 75.7442 56.6725C76.1951 56.7146 76.5715 56.9028 76.8774 57.1092C77.2885 57.3861 77.3744 57.5971 77.6917 57.8637C77.9441 57.6772 77.9998 57.3645 77.9089 56.9483C77.831 56.5912 77.6513 56.4269 77.4972 56.1636C78.1232 56.1704 78.6486 56.2506 79.1604 56.556C79.4003 56.6998 79.3599 56.7538 79.5311 56.8886C79.725 56.4263 79.9251 56.0618 79.5669 55.5541C78.8238 54.4993 76.522 54.5738 75.3302 54.7393C74.769 54.8177 74.3226 54.7552 73.7449 54.8911C73.4987 54.9491 73.3083 55.0469 73.0433 55.0543C72.7277 55.0622 72.4718 55.0423 72.1472 55.0827C69.108 55.4568 69.2649 55.4455 68.5399 51.9224C68.3381 50.9432 68.1885 49.8959 68.0953 48.865C67.7314 44.8631 68.4188 40.5951 70.3867 37.1989C71.1089 35.9525 72.0289 34.718 73.0592 33.7594C75.0289 31.9267 78.3745 29.9548 81.2881 31.2279C81.9619 31.5219 82.9308 32.3265 83.1725 32.8399C83.3629 31.4662 83.3737 27.3375 83.3658 25.7909C83.3282 18.8454 82.63 11.7878 82.4907 4.74332C82.3599 4.85704 81.963 5.52345 81.8038 5.72701C81.5349 6.07102 81.3114 6.32121 81.0243 6.62371C76.9906 10.8809 68.9271 12.2415 63.1978 12.287C57.4555 12.3337 49.3005 10.9849 45.3004 6.69364L44.5299 5.78842C44.2746 5.46204 44.0722 5.01113 43.8408 4.73536C43.5974 14.1043 42.6086 23.4226 43.1459 32.8206ZM72.0175 17.8048C74.9191 17.8048 77.2709 20.1571 77.2709 23.0587C77.2709 25.9603 74.9191 28.3121 72.0175 28.3121C69.1159 28.3121 66.7636 25.9603 66.7636 23.0587C66.7636 20.1571 69.1159 17.8048 72.0175 17.8048ZM72.0175 20.355C73.5107 20.355 74.7207 21.5656 74.7207 23.0587C74.7207 24.5519 73.5107 25.7619 72.0175 25.7619C70.5244 25.7619 69.3144 24.5519 69.3144 23.0587C69.3144 21.5656 70.5244 20.355 72.0175 20.355ZM54.2906 17.8048C57.1922 17.8048 59.544 20.1571 59.544 23.0587C59.544 25.9603 57.1922 28.3121 54.2906 28.3121C51.389 28.3121 49.0367 25.9603 49.0367 23.0587C49.0367 20.1571 51.389 17.8048 54.2906 17.8048ZM54.2906 20.355C55.7832 20.355 56.9938 21.5656 56.9938 23.0587C56.9938 24.5519 55.7832 25.7619 54.2906 25.7619C52.7975 25.7619 51.5869 24.5519 51.5869 23.0587C51.5869 21.5656 52.7975 20.355 54.2906 20.355ZM0 56.3336V57.5038H41.6567V56.3336H0ZM33.4404 70.024V71.1942H70.3458V70.024H33.4404ZM22.8313 67.9952V66.8256H120V67.9952H22.8313ZM57.9706 64.7962V63.626H114.421V64.7962H57.9706ZM34.9784 60.8188V59.6486H78.8129V60.8188H34.9784ZM84.6088 53.0181V54.1894H105.811V53.0181H84.6088ZM85.6368 2.66904L83.6518 3.31441L84.8436 4.95484L83.7564 5.74521L82.5953 4.14685L81.4689 5.69745L80.3817 4.90708L81.5588 3.28826L79.655 2.66904L80.0701 1.39025L81.9738 2.00946V0.00796133C82.4219 0.00796133 82.87 0.00796133 83.3175 0.00796133V2.00946L85.2217 1.39025L85.6368 2.66904ZM40.6946 2.66108L42.6797 3.30588L41.4879 4.94688L42.5745 5.73725L43.7356 4.13946L44.862 5.68891L45.9497 4.89912L44.7733 3.2803L46.6775 2.66108L46.2619 1.38285L44.3582 2.0015V0C43.9096 0 43.4621 0 43.0134 0V2.0015L41.1103 1.38285L40.6946 2.66108ZM56.4024 54.1985C57.2172 50.9762 57.7313 49.4103 57.6522 45.8167C57.5374 40.6219 55.3357 35.7569 51.2127 32.9917C49.1368 31.5992 45.8582 30.9561 44.0546 32.932C42.5767 34.552 41.6482 37.8039 41.6567 40.192C41.6704 44.0818 43.6008 47.796 46.126 50.1944C46.5348 50.5827 46.8908 50.9523 47.3712 51.3276C47.7948 51.6585 48.3089 52.0435 48.7962 52.3369C51.0751 53.7072 53.1278 54.5465 56.4024 54.1985ZM78.333 31.767C73.7648 32.443 70.1877 37.3143 69.15 41.9115C68.3506 45.4539 68.4944 49.0282 69.4127 52.5655L69.7988 53.966C69.879 54.2463 69.8244 54.2338 70.1275 54.2764C71.5695 54.4783 73.1519 54.2491 74.4182 53.8301C81.3961 51.5204 86.6518 43.4649 83.8332 35.8751C82.9098 33.3892 81.5223 31.2944 78.333 31.767ZM63.2519 34.291C63.5919 34.0465 64.3027 33.1953 64.6182 32.7813C65.0248 32.248 65.4126 31.6481 65.6542 30.8981C67.2088 26.0593 56.5565 26.8263 62.5178 33.5552C62.7265 33.7918 62.9858 34.1631 63.2519 34.291ZM53.4639 14.8981C50.966 15.225 49.1879 16.4549 48.0729 17.8048C46.8248 19.3162 45.8428 21.5218 46.1863 24.2102C46.7208 28.3985 50.5714 32.0467 55.4711 31.4178C59.6935 30.8765 63.274 27.0805 62.7066 22.1757C62.1766 17.6024 57.9286 14.313 53.4639 14.8981ZM70.8468 14.9094C66.6112 15.4587 63.0034 19.2775 63.6328 24.2232C64.1673 28.4224 68.0424 32.0433 72.933 31.4155C77.1299 30.8771 80.7815 27.0276 80.1418 22.1046C79.5965 17.91 75.7595 14.2726 70.8468 14.9094Z" fill="#5D5D5D"/>
</svg>
